<?xml version="1.0" encoding="UTF-8"?>
<svg width="688" height="336" version="1.1" viewBox="0 0 688 336" xmlns="http://www.w3.org/2000/svg" xmlns:xlink="http://www.w3.org/1999/xlink">
 <defs>
  <style>.cls-1 {
        fill: #ffd100;
      }

      .cls-2 {
        fill: #4ea22c;
      }

      .cls-3 {
        fill: #ffed00;
      }

      .cls-4 {
        fill: #ef7800;
      }

      .cls-5 {
        fill: #f39100;
      }

      .cls-6 {
        fill: #095540;
      }

      .cls-7 {
        fill: #76b828;
      }</style>
  <symbol id="Bonduelle-Consum" viewBox="0 0 903.61 339.3">
   <path class="cls-6" d="m900.15 183.56c-4.29 4.39-12.1 4.34-16.3-0.08-4.54-4.29-4.46-12.5 0.27-16.63 4.4-4.26 11.88-4.18 16.12 0.25 4.56 4.31 4.5 12.23-0.08 16.46zm-14.88-14.99c-3.72 3.61-3.66 9.97 0.05 13.51 3.54 3.74 9.93 3.75 13.47-0.02 3.69-3.6 3.75-9.87 0.02-13.5-3.57-3.86-9.97-3.84-13.53 0zm1.73 13.12v-12.81s7.36-0.48 8.99 0.84c2.62 1.76 1.66 6.05-1.67 6.09 2.54 0.33 3.13 2.41 2.95 4.76-0.02 0.37 0.11 0.76 0.24 1.11h-3.2c-0.54-3.36 0.37-4.66-3.95-4.53v4.53h-3.35zm4.17-10.55h-0.82v3.72h1.3c0.78 0 2.49-0.18 2.49-1.86 0-1.93-2.14-1.85-2.98-1.85z"/>
   <path class="cls-6" d="m299.42 228.48c-1.76-19.36-15.3-34.03-35.47-35.81-63.7-7.91-93.9 94.93-29.38 103.77 43.34 3.58 67.83-35.06 64.85-67.95zm-55.9 54.34c-6.1 0-11.04-4.71-11.63-17.99-1.37-29.28 9.09-58.15 22.95-58.15 6.5 0 10.82 4.87 11.81 18.04 2.02 27.38-9.2 58.09-23.13 58.09z"/>
   <path class="cls-6" d="m24.9 303.33c35.35 17.47 109.75 13.41 138.33-16.31 48.72-43.31 33.35-114.33-32.54-107.39 43.32-18.39 69-51.31 64.7-73.72-3.87-34.73-43.62-43.54-78.29-42.88-38.95 0.74-72.58 16.03-101.4 44.15-5.06 4.93-14.35 15.77-15.63 21.97-0.5 2.02 2.13 3.62 3.46 2.56 17.44-16.69 54.15-36.9 96.82-41.04 69.47-6.3 60.37 45.72 8.38 75.76-17.13 10.71-22.46 16.31-28.16 22.94l9.72-75.19c-29.85 3.54-42.56 10.37-46.63 42.02-4.72 36.77-15.98 126.68-18.75 147.14zm125.26-100.86c6.12 29.23-15.24 90.36-70.53 89.64 3.71-12.44 23.52-49.82 37.2-64.08-21.97 10.35-36.59 33.59-45.76 56.82-14.08-37.03 26.05-91.26 79.08-82.37z"/>
   <path class="cls-6" d="m496.82 127.44c-5.3 0-14.34 2.84-21.81 5-0.78 0.23-0.62 1.14 0.01 1.57 2.19 1.51 4.03 5.24 4.36 8.79 0.3 3.31-1.9 23.96-5.02 49.42-80.28-3.68-89.36 101.87-43.72 104.48 13.81 0 26.95-11.39 32.83-19.64-2.82 26.55 26.67 21.68 40.5 12.52 0.44-0.29 0.31-1.3-0.17-1.54-6.72-3.23-10.07-9.2-9.45-17.86 0.78-10.8 13.21-99.78 16.35-127.2 0.86-7.55-2.47-15.54-13.88-15.54zm-31.28 134.02c-4.95 5.93-12.33 12.78-18.98 12.78-4 0-9.18-2-10.04-11.44-2.85-31.44 15.27-55.27 36.14-56.73-2.51 19.92-5.33 41.87-7.12 55.39z"/>
   <path class="cls-6" d="m604.73 288.09c-6.78-3.22-10.14-9.2-9.5-17.9 0.46-6.66 5.34-43.04 9.75-76.4-26.15-2.94-31.15 9.12-32.38 19.49-2.19 18.53-4.61 36.54-6.26 48.89-4.05 5.07-21.21 19.35-23.06 7.47-0.63-6.93 9.09-62.09 8.39-69.79-0.47-5.21-4.12-7.62-10.54-7.62-5.33 0-17.07 2.87-24.4 5.04-0.65 0.21-0.57 1.1-0.05 1.56 1.75 1.53 2.59 4.36 2.81 6.85 1.78 19.65-8.59 63.11-7.6 74.03 1.02 11.24 7.75 17 16.24 17 12.88 0 28.05-9.88 35.98-17.18-0.58 24.36 27.61 18.8 40.54 10.18 0.51-0.34 0.51-1.4 0.06-1.62z"/>
   <path class="cls-6" d="m507.18 308.77c-45.7 24.97-119.32 19.77-117.11-37.59 0.64-25.64 8.77-48.93 7.68-61.96-0.94-11.24-7.69-16.95-16.18-16.95-12.91 0-29.4 9.82-37.55 17.12-0.15 0.13-0.37 0-0.35-0.19 0.52-4.94 0.83-8.35 0.75-9.33-0.44-5.21-4.07-7.62-10.49-7.62-5.34 0-16.19 2.84-23.42 5.02-0.73 0.22-0.99 1.1-0.52 1.69 1.24 1.55 2.03 4.36 2.23 6.74 1.36 12.71-6.1 66.01-13.38 88.88 28.48 2.36 31.94-2.56 34.41-14.09 2.22-10.41 5.76-34.32 8.27-53.43 3.94-4.85 13.96-12.31 19.49-12.34 3.04 0 4.46 1.86 4.69 4.61 0.81 9.62-6.25 35.13-6.18 53.01 0.63 74.73 103.61 85.45 149.78 39.46 1.59-1.44-0.08-4.07-2.12-3.03z"/>
   <path class="cls-6" d="m691.54 267.81c-0.35 0-1.05 0.36-1.75 0.88-9.45 6.37-18.1 10.46-28.9 9.55-9.17-0.77-17.79-9.05-18.57-24.89 60.53 6.21 78.02-58.93 26.41-60.87-63.83-1.2-82 103.68-20.23 104.67 22.46-0.06 38.28-11.53 44.06-27.73 0.32-0.9-0.31-1.62-1.02-1.62zm-25.64-60.82c13.21 0.49 5.16 37.04-22.92 34.39 2.84-19.12 13.32-34.39 22.92-34.39z"/>
   <path class="cls-6" d="m878.16 267.81c-0.35 0-1.05 0.36-1.75 0.88-9.45 6.37-18.1 10.46-28.9 9.55-9.17-0.77-17.79-9.05-18.57-24.89 60.53 6.21 78.02-58.93 26.41-60.87-63.83-1.2-82 103.68-20.23 104.67 22.46-0.06 38.28-11.53 44.06-27.73 0.32-0.9-0.31-1.62-1.02-1.62zm-25.63-60.82c13.21 0.49 5.16 37.04-22.92 34.39 2.84-19.12 13.32-34.39 22.92-34.39z"/>
   <path class="cls-6" d="m736.18 127.44c-5.18 0-13.86 2.69-21.37 4.84-0.99 0.29-0.76 1.5-0.05 2.04 2.11 1.6 3.44 4.38 3.76 7.93 1.15 12.69-14.61 111.21-15.82 135.38-1.52 26.67 28.65 20.48 41.86 12.28 0.59-0.37 0.5-1.76-0.09-2.06-6.46-3.26-11.51-9.17-10.87-17.66 1.46-18.88 12.83-98.37 16.13-125.86 1.23-9.88-2.99-16.88-13.54-16.88z"/>
   <path class="cls-6" d="m785.28 127.44c-5.18 0-13.86 2.69-21.37 4.84-0.99 0.29-0.76 1.5-0.05 2.04 2.11 1.6 3.44 4.38 3.76 7.93 1.15 12.69-14.61 111.21-15.82 135.38-1.52 26.67 28.65 20.48 41.86 12.28 0.59-0.37 0.5-1.76-0.09-2.06-6.46-3.26-11.51-9.17-10.87-17.66 1.46-18.88 12.83-98.37 16.13-125.86 1.23-9.88-2.99-16.88-13.54-16.88z"/>
   <path class="cls-3" d="m312.37 41.93c41.5-18.14 165.89-54.29 296.64 20.55 37.26 21.32 66.23 47.6 89.81 78.62 0 0 1.2 1.3 0.42 2.06-0.9 0.87-2.04-0.18-2.81-0.61-16.49-9.32-36.28-20.22-50.25-27.99-92.31-51.37-153.65-54.02-153.65-54.02s4.36 0.98 8.01 1.79c29.06 6.5 60.74 18.54 86.19 35.24 1.2 0.79 4.75 2.82 4.31 3.77-0.83 1.79-4.64-0.44-9.52-1.96-20.56-6.4-89.2-27.24-178.88-19.8-44.35 3.68-77.1 11.69-103.66 21.22-28.64 10.27-50.1 22.3-71.2 32.55-7.42 3.6-21.92 13.12-23.7 14.21s-3.79 2.59-4.85 2.03c-0.76-0.4-0.88-1.03-0.1-3.18 0.06-0.16 0.12-0.32 0.19-0.5 3.5-9.06 19.49-38.46 43.74-59.93 8.27-7.32 18.48-15.06 29.66-22.37 12.47-8.15 26.15-15.77 39.65-21.67z"/>
   <path class="cls-1" d="m298.97 100.79c-28.64 10.27-50.1 22.3-71.2 32.55-7.42 3.6-21.92 13.12-23.7 14.21s-3.79 2.59-4.85 2.03c-0.76-0.4-0.88-1.03-0.1-3.18 0 0 15.16-28.83 62.28-54.59 110.95-60.65 230.02-31.4 230.02-31.4s-50.82-5.14-83.58 0.3c-59.88 9.93-78.41 28.43-108.9 40.07z"/>
   <path class="cls-7" d="m242.95 86.19c34.63 0.44 57.2-23.17 69.31-44.05 6.91-11.91 11.19-26.23 11.28-36.74-54.27-21.77-109.51 26.52-103.15 69.13 15.14-22.55 36.06-43.83 61.81-49.73-17.85 11.97-47.58 47.08-54.41 59.43 5.23 1.21 10.29 1.85 15.16 1.96z"/>
   <path class="cls-2" d="m312.38 41.93c-0.03 0.07-0.07 0.14-0.11 0.21-12.12 20.88-34.68 44.49-69.31 44.05h-0.13c0.08-0.08 0.16-0.15 0.24-0.22 8.26-7.32 18.48-15.06 29.66-22.36 12.47-8.16 26.14-15.77 39.65-21.68z"/>
   <path class="cls-5" d="m233.38 139.42c-6.33-4.14-6.78-13.35-0.87-18.08 6.89-5.51 13.8-9.79 23.72-11.85 2.43-0.51 10.02-0.97 12.49-1.12 2.47-0.14 19.94 3.71 26.5 9.93 1.29 1.23 1.96 3.04 0.48 6.76-1.92 4.12-11.75 9.67-15.45 12.72-13.63 11.24-30.23 12.52-46.88 1.64z"/>
   <path class="cls-5" d="m292.3 103.18c-4.65-1.14-6.84-6.55-4.31-10.61 2.96-4.73 6.19-8.73 11.68-12.05 1.34-0.81 5.78-2.68 7.22-3.28s12.68-1.97 17.9 0.37c1.03 0.46 1.81 1.41 1.7 3.93-0.29 2.86-4.99 8.23-6.56 10.83-5.78 9.57-15.42 13.81-27.64 10.81z"/>
   <path class="cls-4" d="m276.36 109.79c-17.71 7.73-32.8 15.84-47.66 23.09-1.04-4.07 0.19-8.64 3.81-11.54 6.89-5.51 13.8-9.78 23.72-11.85 2.43-0.5 10.02-0.97 12.49-1.11 0.92-0.06 3.91 0.44 7.64 1.41z"/>
   <path class="cls-4" d="m326.49 81.54c-0.24 2.33-3.41 6.33-5.41 9.14-7.19 3.65-14.25 7.11-22.11 10.11-2.22 0.8-4.4 1.61-6.54 2.42-0.05-0.01-0.09-0.02-0.14-0.03-4.65-1.15-6.84-6.55-4.31-10.61 2.96-4.74 6.19-8.74 11.68-12.05 1.34-0.81 5.78-2.68 7.22-3.29 1.45-0.6 12.68-1.96 17.91 0.37 1.02 0.47 1.8 1.41 1.7 3.94z"/>
  </symbol>
  <symbol id="Nouveau_symbole" viewBox="0 0 678.38 325.75">
   <use transform="scale(.75)" width="903.60999" height="339.29999" xlink:href="#Bonduelle-Consum"/>
   <path class="cls-4" d="m613.23 291.24c2.48-0.05 4.95-0.71 7.27-1.67 2.31-0.97 4.51-2.26 6.39-3.82 1.85-1.55 3.53-3.3 4.49-4.81 0.23-0.37 0.39-0.73 0.49-0.98s0.07-0.37 0.09-0.2c0 0.17 0.26 0.58 0.41 0.66 0.15 0.1 0.09 0.02-0.16 0-0.5-0.08-1.46 0.03-2.41 0.33-0.97 0.29-1.98 0.76-2.98 1.31-2 1.1-3.95 2.58-5.76 4.25-1.79 1.68-3.41 3.5-4.67 5.46-1.28 1.92-2.23 4.04-2.47 5.97-0.12 0.96-0.04 1.84 0.19 2.5 0.25 0.65 0.58 1.06 1.1 1.35 0.13 0.07 0.28 0.13 0.43 0.19l0.25 0.07 0.4 0.07c0.56 0.1 1.15 0.17 1.75 0.22 1.2 0.11 2.44 0.13 3.69 0.1 5-0.15 10.06-1.25 14.92-2.95 4.87-1.7 9.56-4.02 14.04-6.72l6.71-4.14c2.26-1.38 4.49-2.84 6.88-4.15h0.01c0.37-0.21 0.82-0.08 1.03 0.29 0.15 0.27 0.11 0.59-0.06 0.82-3.36 4.37-7.54 8-12.11 11.07-4.61 3.02-9.51 5.65-14.71 7.67-5.2 2.01-10.7 3.44-16.44 3.82-1.44 0.09-2.88 0.11-4.36 0.03-0.74-0.04-1.48-0.11-2.25-0.21l-0.59-0.09-0.73-0.15c-0.49-0.14-0.97-0.29-1.45-0.52-1.93-0.85-3.48-2.59-4.24-4.42-0.77-1.84-0.93-3.71-0.81-5.41 0.27-3.44 1.55-6.38 3.09-8.99 1.59-2.6 3.52-4.85 5.59-6.9 2.08-2.02 4.35-3.94 7.02-5.48 1.34-0.76 2.77-1.45 4.37-1.95 1.6-0.49 3.34-0.88 5.52-0.63 1.08 0.14 2.33 0.48 3.57 1.38 0.61 0.44 1.19 1.06 1.61 1.77s0.71 1.51 0.81 2.25c0.23 1.51-0.05 2.75-0.4 3.75-0.36 1.01-0.84 1.84-1.35 2.59-2.1 2.94-4.78 4.54-7.49 5.78-2.71 1.23-5.48 2.09-8.32 2.62-2.83 0.5-5.77 0.69-8.64 0.02-0.59-0.14-0.95-0.73-0.82-1.32 0.12-0.5 0.56-0.84 1.04-0.85h0.04z"/>
   <path class="cls-4" d="m511.16 287.14c-3.55 3.56-7.27 6.98-11.22 10.19-3.97 3.19-8.13 6.22-12.89 8.68-2.38 1.21-4.94 2.27-7.75 2.84-2.77 0.61-5.86 0.63-8.6 0.18-0.36-0.05-0.63-0.09-1.04-0.17-0.48-0.1-0.97-0.22-1.45-0.4-0.96-0.35-1.9-0.88-2.72-1.57-1.65-1.38-2.63-3.31-3.06-5.1-0.42-1.81-0.39-3.54-0.14-5.12 0.25-1.59 0.72-3.06 1.29-4.43 1.16-2.74 2.78-5.1 4.58-7.19 1.82-2.1 3.76-3.94 5.92-5.63s4.54-3.2 7.31-4.24c1.39-0.52 2.88-0.92 4.58-1.03 0.85-0.04 1.76-0.02 2.75 0.19 0.98 0.22 2.1 0.64 3.1 1.56 1.01 0.89 1.69 2.31 1.79 3.56 0.13 1.26-0.12 2.3-0.44 3.18-0.66 1.75-1.64 2.99-2.66 4.08-2.07 2.15-4.4 3.64-6.8 4.89-2.42 1.22-4.94 2.16-7.58 2.77-1.32 0.29-2.69 0.43-4.07 0.33-1.38-0.11-2.78-0.4-4.02-1.13-0.38-0.22-0.52-0.71-0.29-1.1 0.1-0.18 0.26-0.3 0.45-0.36h0.03l6.73-2.2c2.19-0.69 4.31-1.65 6.27-2.83 1.94-1.18 3.76-2.61 5.03-4.17 0.64-0.76 1.11-1.61 1.28-2.22 0.09-0.3 0.08-0.52 0.06-0.5-0.04 0 0.04 0.24 0.12 0.31 0.07 0.07 0 0.01-0.25-0.01-0.24-0.03-0.59-0.03-0.98 0.02-0.8 0.1-1.73 0.38-2.66 0.79-1.86 0.83-3.72 2.06-5.45 3.49-3.48 2.89-6.55 6.52-8.14 10.25-0.78 1.84-1.08 3.8-0.75 5.06 0.16 0.62 0.41 1.01 0.69 1.23 0.14 0.11 0.3 0.2 0.51 0.28 0.1 0.04 0.22 0.07 0.35 0.09l0.8 0.15c2.18 0.37 4.16 0.44 6.31 0.2 2.13-0.25 4.33-0.79 6.54-1.53 4.43-1.49 8.75-3.85 12.9-6.45 4.16-2.62 8.16-5.55 12.13-8.55 0.48-0.37 1.17-0.27 1.53 0.21 0.33 0.44 0.28 1.05-0.1 1.43z"/>
   <path class="cls-4" d="m513.09 278.88c0.33 2.7 0.04 5.19-0.44 7.6-0.47 2.42-1.31 4.71-2.09 7.02s-1.55 4.63-2.36 6.93-1.6 4.61-2.44 6.9l-6.84-2.48c1.43-3.68 3.03-7.09 4.81-10.54 1.8-3.41 3.76-6.76 6.07-9.96 1.16-1.6 2.41-3.16 3.84-4.64 1.43-1.47 3.02-2.9 5.09-4 1.03-0.54 2.23-0.98 3.55-1.14 1.33-0.16 2.77 0.06 3.94 0.56 0.62 0.25 1.28 0.62 1.85 1.17 0.57 0.54 1.02 1.3 1.21 2.06 0.19 0.77 0.14 1.52-0.07 2.15-0.23 0.65-0.53 1.16-1.07 1.63-0.34 0.29-0.85 0.26-1.14-0.08-0.05-0.06-0.09-0.12-0.12-0.18l-0.13-0.27c-0.42-0.88-0.81-1.56-1.18-1.72-0.16-0.1-0.29-0.12-0.43-0.18-0.14-0.05-0.32-0.14-0.57-0.22-0.58-0.17-1.05-0.17-1.58-0.06-0.53 0.13-1.11 0.38-1.7 0.77-1.19 0.77-2.35 1.96-3.41 3.27-1.06 1.32-2.04 2.78-2.96 4.29-1.84 3.03-3.47 6.28-4.97 9.59-1.51 3.29-2.94 6.73-4.2 10.04-0.71 1.88-2.81 2.82-4.69 2.11-1.83-0.7-2.77-2.71-2.16-4.55v-0.04c0.79-2.31 1.63-4.6 2.44-6.9s1.66-4.59 2.5-6.88c0.85-2.29 1.63-4.6 2.78-6.78s2.47-4.3 4.43-6.2c0.48-0.47 1.25-0.46 1.72 0.02 0.19 0.2 0.3 0.45 0.33 0.7z"/>
   <path class="cls-4" d="m563.6 271.11c-0.02 2.3-0.77 4.44-1.66 6.4-0.91 1.96-2.03 3.78-3.25 5.48-2.43 3.42-5.28 6.42-8.27 9.21s-6.06 5.45-9.2 8.02c-3.14 2.59-6.32 5.03-9.65 7.46-1.62 1.18-3.9 0.83-5.08-0.8-0.6-0.82-0.8-1.8-0.65-2.73l0.02-0.09c0.18-1.09 0.4-2.18 0.61-3.26 0.21-1.09 0.43-2.17 0.68-3.25 0.47-2.17 1-4.32 1.54-6.47l1.69-6.45 0.86-3.22c0.26-1.08 0.55-2.15 2.19-2.98 0.5-0.25 1.09-0.13 1.46 0.26 1.25 1.35 1.15 2.46 1.01 3.56l-0.32 3.32-0.66 6.63c-0.24 2.21-0.5 4.41-0.82 6.6-0.15 1.1-0.32 2.19-0.5 3.29-0.17 1.09-0.35 2.19-0.56 3.27l-5.71-3.62c3.13-2.25 6.27-4.71 9.34-7.14 3.07-2.46 6.07-4.98 8.96-7.61 2.88-2.63 5.72-5.26 8.49-7.91 2.71-2.69 5.47-5.31 7.37-8.47l0.05-0.09c0.32-0.53 1-0.7 1.53-0.38 0.35 0.21 0.54 0.58 0.54 0.96z"/>
   <path class="cls-4" d="m573.92 275.7c0.01 2.8-0.76 5.08-1.71 7.24-0.48 1.08-1.08 2.08-1.64 3.11l-1.66 3.08c-1.09 2.05-2.16 4.11-3.15 6.17-1 2.03-1.92 4.13-2.55 6.02-0.15 0.47-0.27 0.92-0.35 1.3-0.08 0.36-0.08 0.69-0.11 0.59-0.03-0.06-0.08-0.32-0.38-0.67-0.08-0.09-0.16-0.16-0.26-0.25-0.08-0.08-0.25-0.17-0.25-0.17-0.06-0.05-0.15-0.08-0.21-0.08-0.21-0.04-0.02 0.04 0.25 0.03 0.63-0.02 1.61-0.25 2.58-0.59 0.98-0.34 1.99-0.78 3-1.24 2.03-0.95 4.05-2.07 6.05-3.26 1-0.59 1.98-1.22 2.97-1.84 1.01-0.59 2.15-1.02 3.74-0.87h0.03c0.55 0.05 0.95 0.53 0.9 1.08 0 0.03 0 0.05-0.01 0.08-0.28 1.61-1.05 2.61-1.96 3.42-0.93 0.78-1.89 1.53-2.86 2.27-1.94 1.48-3.94 2.91-6.09 4.24-1.08 0.66-2.2 1.29-3.42 1.86-1.24 0.56-2.52 1.1-4.26 1.37-0.9 0.09-1.93 0.17-3.27-0.28-0.34-0.13-0.68-0.3-1.01-0.48-0.13-0.06-0.41-0.27-0.61-0.43-0.22-0.17-0.39-0.37-0.56-0.57-0.67-0.81-0.95-1.65-1.09-2.29-0.25-1.28-0.15-2.15-0.06-2.96 0.11-0.8 0.27-1.5 0.44-2.18 0.71-2.68 1.72-4.95 2.74-7.21 1.06-2.24 2.2-4.4 3.39-6.52l1.83-3.14c0.62-1.04 1.22-2.09 1.95-3.06 1.47-1.93 3.18-3.71 5.75-4.93 0.64-0.3 1.41-0.03 1.71 0.61 0.08 0.17 0.12 0.36 0.12 0.54v0.03z"/>
   <path class="cls-4" d="m584.82 261.05c0.68 1.37 0.77 2.16 0.59 2.68-0.08 0.26-0.27 0.42-0.42 0.61-0.16 0.19-0.32 0.36-0.49 0.54-0.67 0.71-1.41 1.35-2.23 1.92-0.83 0.56-1.75 1.03-2.72 1.46-0.5 0.21-0.99 0.42-1.53 0.61-0.25 0.1-0.56 0.2-0.85 0.29-0.3 0.03-0.87-0.09-1.5-0.98-0.26-0.36-0.43-0.76-0.51-1.17l-0.04-0.21c-0.22-1.11-0.35-1.39-0.25-1.62l0.35-0.46c0.24-0.33 0.5-0.69 0.75-1.05 0.51-0.74 1.03-1.49 1.62-2.17 0.59-0.69 1.24-1.32 1.95-1.89 0.18-0.14 0.35-0.29 0.54-0.43s0.34-0.3 0.6-0.37c0.5-0.14 1.27 0 2.61 0.7l0.08 0.04c0.66 0.35 1.16 0.88 1.46 1.5z"/>
   <path class="cls-4" d="m613.95 293.86c-2.05 3.27-4.77 5.7-7.72 7.82-1.48 1.06-3.07 1.96-4.69 2.84-1.61 0.89-3.27 1.73-5.02 2.5-1.74 0.77-3.57 1.44-5.58 1.94-1.02 0.23-2.07 0.44-3.24 0.51-1.16 0.07-2.42 0.05-3.82-0.34-1.38-0.37-2.89-1.2-3.96-2.42-1.09-1.21-1.68-2.61-1.99-3.85-0.31-1.25-0.41-2.42-0.4-3.52 0.02-0.56 0.08-1.11 0.12-1.67l0.08-0.83 0.17-0.79 0.36-1.58 0.51-1.49c0.31-1.01 0.82-1.88 1.24-2.82 0.98-1.75 2.05-3.43 3.29-4.92 2.45-3.03 5.28-5.64 8.58-7.72 1.67-1.03 3.4-1.98 5.48-2.58 0.48-0.18 1.09-0.26 1.64-0.37 0.28-0.05 0.56-0.1 0.87-0.12 0.29-0.03 0.61-0.04 0.94-0.02 0.65 0.01 1.38 0.11 2.17 0.41 0.77 0.29 1.61 0.85 2.16 1.61 0.56 0.75 0.83 1.58 0.94 2.3s0.1 1.39 0.02 1.99c-0.16 1.2-0.5 2.24-0.95 3.21-0.45 0.96-1.08 1.82-1.89 2.53-0.81 0.69-1.83 1.3-3.05 1.36-0.45 0.02-0.83-0.33-0.85-0.77 0-0.1 0-0.2 0.04-0.29l0.07-0.23 1.43-4.37c0.23-0.66 0.38-1.34 0.4-1.89 0.04-0.56-0.17-0.9-0.14-0.77 0.02 0.05 0.08 0.11 0.03 0.11-0.04 0-0.2-0.02-0.43 0-0.11 0-0.23 0.02-0.38 0.05-0.13 0.01-0.28 0.06-0.44 0.11-0.31 0.11-0.59 0.12-0.92 0.29-1.29 0.47-2.64 1.33-3.9 2.26-1.28 0.92-2.46 2.03-3.61 3.15-1.1 1.18-2.17 2.38-3.06 3.69-0.95 1.28-1.68 2.65-2.35 4.02l-0.41 1.04-0.22 0.51-0.15 0.52-0.32 1.03-0.18 1.02-0.1 0.5-0.02 0.49-0.05 0.98c0.02 0.67 0.1 1.27 0.22 1.72 0.12 0.46 0.29 0.72 0.39 0.82 0.11 0.1 0.2 0.16 0.53 0.26 0.64 0.19 2.03 0.13 3.42-0.22 1.42-0.34 2.92-0.89 4.42-1.5 3.03-1.22 5.98-2.94 9.02-4.53 3.08-1.54 6.26-3 10.01-3.76 0.64-0.13 1.27 0.28 1.4 0.92 0.06 0.31 0 0.62-0.16 0.87z"/>
   <path class="cls-4" d="m446.74 256.53c0.75-0.8 1.34-1.8 1.54-2.69 0.1-0.44 0.08-0.83-0.03-1.04-0.1-0.22-0.22-0.31-0.44-0.44s-0.58-0.26-1-0.36c-0.45-0.07-0.92-0.17-1.46-0.19-1.05-0.06-2.2 0.01-3.36 0.15-4.66 0.58-9.52 1.93-14.27 3.32-4.72 1.43-9.44 3.03-13.55 5.19-1.01 0.54-1.98 1.13-2.8 1.74-0.81 0.59-1.5 1.3-1.7 1.68-0.1 0.18-0.06 0.2-0.05 0.01 0-0.18-0.09-0.36-0.04-0.27 0.09 0.17 0.82 0.76 1.69 1.17 0.89 0.44 1.93 0.83 3.03 1.17 0.56 0.17 1.09 0.32 1.7 0.49l1.85 0.5c2.47 0.66 4.96 1.33 7.44 2.04 4.98 1.42 9.97 2.97 14.91 5 2.47 1.03 4.91 2.19 7.32 3.6 2.39 1.43 4.77 3.08 6.87 5.43 1.04 1.17 1.99 2.56 2.69 4.15 0.69 1.6 1.07 3.43 1.02 5.21-0.03 1.79-0.47 3.48-1.07 4.98-0.61 1.5-1.4 2.83-2.25 4.04-1.7 2.42-3.73 4.44-5.84 6.23-2.12 1.79-4.37 3.35-6.68 4.74-4.63 2.77-9.5 4.94-14.47 6.73-4.98 1.78-10.08 3.16-15.27 4.12s-10.48 1.52-15.84 1.41c-2.68-0.06-5.38-0.28-8.08-0.78-2.69-0.49-5.4-1.26-7.99-2.5-1.29-0.62-2.56-1.37-3.74-2.29-1.15-0.9-2.24-1.9-3.21-3.14-0.95-1.25-1.8-2.78-2.11-4.56-0.34-1.76-0.05-3.62 0.56-5.14 0.62-1.53 1.51-2.81 2.46-3.92s2-2.07 3.06-2.95c2.14-1.74 4.41-3.18 6.72-4.46 4.66-2.51 9.58-4.32 14.83-5.06l0.48 1.4c-4.36 2.74-8.8 5.09-13.02 7.63-2.11 1.27-4.14 2.63-5.92 4.16-1.75 1.52-3.31 3.28-3.94 4.99-0.62 1.7-0.27 3.1 0.97 4.66 0.62 0.75 1.44 1.48 2.32 2.13 0.86 0.63 1.82 1.16 2.83 1.62 4.11 1.82 9 2.37 13.82 2.35 4.86-0.04 9.77-0.65 14.6-1.66s9.59-2.41 14.2-4.17c4.6-1.77 9.06-3.89 13.14-6.46 4.06-2.55 7.87-5.56 10.35-9.13 1.23-1.76 1.98-3.59 1.98-5.12 0.04-1.51-0.63-2.98-1.97-4.46-1.31-1.47-3.17-2.79-5.16-3.95-2.01-1.16-4.2-2.17-6.45-3.1-4.5-1.87-9.28-3.39-14.11-4.8-2.42-0.7-4.86-1.37-7.32-2.05l-1.85-0.51c-0.61-0.17-1.32-0.37-1.98-0.58-1.34-0.42-2.7-0.93-4.1-1.62-1.38-0.75-2.9-1.55-4.32-3.47-0.68-0.95-1.27-2.38-1.24-3.84 0-1.47 0.51-2.69 1.04-3.61 1.12-1.82 2.39-2.84 3.61-3.77 1.23-0.91 2.47-1.64 3.71-2.29 4.95-2.58 10-4.2 15.12-5.46 2.57-0.61 5.12-1.12 7.75-1.52 2.63-0.38 5.31-0.64 8.09-0.57 1.4 0.06 2.81 0.18 4.28 0.5 0.73 0.15 1.5 0.39 2.25 0.73 0.76 0.37 1.56 0.83 2.26 1.59 0.71 0.74 1.22 1.84 1.27 2.89 0.06 1.06-0.25 1.96-0.63 2.7-0.78 1.48-1.92 2.49-3.19 3.22z"/>
   <path class="cls-4" d="m280.51 284.58c-0.29 8.06-4.7 15.63-11.31 20.96-1.7 1.3-3.57 2.46-5.72 3.26-2.14 0.77-4.58 1.32-7.33 0.7-0.68-0.17-1.37-0.4-2.05-0.75-0.65-0.31-1.39-0.88-1.79-1.24-0.93-0.81-1.78-1.82-2.44-2.97-0.67-1.15-1.08-2.45-1.27-3.73-0.18-1.28-0.16-2.55 0.02-3.73 0.34-2.38 1.21-4.43 2.21-6.31 1.01-1.87 2.2-3.58 3.47-5.17 2.57-3.18 5.46-5.95 8.86-8.31 0.86-0.59 1.75-1.15 2.76-1.65 0.51-0.25 1.05-0.49 1.7-0.7 0.62-0.19 1.12-0.3 1.7-0.4 1.13-0.19 2.29-0.28 3.49-0.16 1.19 0.11 2.44 0.4 3.65 1.04 1.2 0.64 2.37 1.74 2.97 3.13 0.63 1.37 0.66 2.81 0.43 4.01-0.51 2.42-1.86 4.16-3.58 5.41-0.36 0.26-0.86 0.18-1.12-0.18-0.12-0.16-0.17-0.36-0.15-0.55v-0.04c0.19-2.01 0.58-3.76 0.52-5.14-0.03-0.67-0.12-1.21-0.31-1.56-0.18-0.36-0.47-0.62-0.95-0.86-0.97-0.47-2.54-0.54-4-0.21-0.35 0.08-0.77 0.19-1.06 0.3-0.24 0.09-0.57 0.26-0.9 0.44-0.67 0.38-1.37 0.87-2.05 1.4-1.37 1.06-2.69 2.27-3.92 3.55-1.25 1.27-2.42 2.62-3.47 4.03-2.09 2.78-3.8 5.96-4.19 8.79-0.19 1.41 0 2.59 0.57 3.57 0.28 0.5 0.66 0.97 1.16 1.41l0.19 0.16c0.06 0.05 0.08 0.05 0.12 0.08 0.06 0.06 0.15 0.1 0.23 0.14 0.17 0.09 0.38 0.16 0.62 0.23 0.98 0.24 2.45 0.09 3.86-0.42 1.43-0.49 2.85-1.31 4.18-2.29 2.68-1.98 4.9-4.71 6.85-7.64 2.01-2.91 3.8-6.05 5.98-9.26v-0.02c0.36-0.52 1.07-0.65 1.58-0.3 0.33 0.23 0.5 0.6 0.49 0.98z"/>
   <path class="cls-4" d="m305.32 286.89c0.42-1.55 0.86-3.04 1.07-4.39 0.09-0.67 0.12-1.3 0.04-1.76-0.08-0.47-0.26-0.63-0.31-0.59-0.05 0.05-0.14 0-0.54-0.05-0.37-0.04-0.93-0.02-1.5 0.06s-1.24 0.23-1.83 0.42c-0.37 0.12-0.98 0.43-1.54 0.77-2.34 1.45-4.65 3.52-6.66 5.68-2.01 2.19-3.82 4.58-5.09 7.06-1.27 2.47-1.86 5.06-1.18 6.81 0.31 0.87 0.96 1.72 1.82 2.4 0.74 0.58 1.79 0.97 2.97 1.1 2.38 0.27 5.07-0.5 7.35-1.9 2.32-1.39 4.25-3.47 5.64-5.92l0.07-0.12 0.03-0.04c0.58-0.91 1.21-2.11 1.72-3.23 0.53-1.15 1.01-2.32 1.43-3.52 0.4-1.2 0.78-2.41 1.28-3.61 0.52-1.2 1.03-2.4 1.91-3.63l0.02-0.03c0.26-0.37 0.78-0.45 1.15-0.19 0.14 0.1 0.24 0.23 0.29 0.38 0.54 1.44 0.66 2.9 0.59 4.33-0.06 1.43-0.41 2.82-0.83 4.17-0.4 1.36-0.89 2.7-1.43 4.02-0.56 1.34-1.11 2.57-1.91 3.96l0.09-0.16c-1.61 3.2-4 6.1-7.08 8.18-3.07 2.05-6.8 3.35-10.84 3.07-2-0.16-4.11-0.76-5.96-2.08-0.89-0.65-1.62-1.33-2.32-2.19-0.69-0.85-1.26-1.84-1.65-2.89-0.79-2.12-0.83-4.38-0.46-6.33 0.35-1.97 1.07-3.72 1.88-5.34 1.66-3.23 3.81-5.94 6.18-8.4 2.4-2.45 4.92-4.67 8.06-6.55 0.82-0.46 1.63-0.91 2.79-1.28 0.95-0.27 1.84-0.48 2.86-0.58 1.01-0.09 2.07-0.12 3.27 0.17 1.16 0.25 2.6 0.94 3.55 2.25 0.46 0.65 0.75 1.37 0.89 2.05 0.14 0.69 0.12 1.31 0.08 1.89-0.14 1.14-0.49 2.08-0.9 2.92-0.82 1.69-1.91 3.03-3.15 4.21-0.44 0.43-1.15 0.41-1.58-0.03-0.28-0.29-0.37-0.7-0.27-1.06v-0.04z"/>
   <path class="cls-4" d="m339.85 285.62c0.31-1.68 0.68-3.36 0.54-4.56-0.02-0.29-0.11-0.51-0.18-0.65-0.08-0.12-0.16-0.14-0.19-0.09s-0.05 0.1-0.13 0.1l-0.46-0.03c-0.91-0.06-2.41 0.19-3.82 0.52-0.7 0.17-1.49 0.39-2.14 0.61-0.44 0.16-1.09 0.49-1.69 0.86-1.24 0.75-2.49 1.71-3.67 2.72-1.19 1.01-2.32 2.11-3.37 3.26-2.06 2.3-3.87 4.87-4.7 7.42-0.41 1.26-0.57 2.47-0.39 3.52s0.66 2.01 1.49 2.93c0.1 0.11 0.21 0.23 0.33 0.34l0.17 0.17 0.1 0.08c0.11 0.11 0.23 0.19 0.38 0.26 0.29 0.15 0.72 0.24 1.25 0.23 1.07-0.03 2.41-0.45 3.68-1.14 2.58-1.35 4.99-3.49 6.99-5.94 1.01-1.23 1.93-2.54 2.75-3.92 0.81-1.4 1.67-2.72 3.27-3.92l1.23 0.44c0.45 2.01-0.07 3.81-0.88 5.42-0.79 1.62-1.71 3.2-2.75 4.7-2.09 2.99-4.62 5.76-7.95 7.85-1.67 1.02-3.58 1.9-5.92 2.16-1.17 0.12-2.48 0.04-3.78-0.44-0.64-0.23-1.28-0.56-1.84-0.98l-0.41-0.31-0.3-0.26c-0.2-0.17-0.4-0.36-0.59-0.55-0.77-0.76-1.5-1.65-2.07-2.66s-0.99-2.14-1.22-3.28c-0.46-2.31-0.19-4.6 0.42-6.58 1.28-3.97 3.51-7.09 5.99-9.84 2.52-2.74 5.25-5.13 8.6-7.1 0.86-0.49 1.73-0.96 2.91-1.36 0.97-0.31 1.83-0.54 2.8-0.73 0.95-0.19 1.93-0.33 2.96-0.36 1.03-0.04 2.13 0.02 3.37 0.34 0.62 0.18 1.26 0.41 1.93 0.83 0.66 0.42 1.31 1.04 1.76 1.79 0.44 0.77 0.62 1.58 0.66 2.3 0.02 0.71-0.08 1.35-0.23 1.9-0.68 2.19-1.87 3.62-3.21 4.9l-1.67-0.95z"/>
   <path class="cls-4" d="m355.44 260.82c-0.43 3.41-1.49 6.41-2.72 9.31-1.29 2.87-2.67 5.69-3.84 8.58-1.22 2.87-2.29 5.78-3.23 8.69-0.91 2.91-1.66 5.85-1.98 8.69-0.14 1.42-0.19 2.8-0.04 4.06 0.14 1.34 0.55 2.23 0.83 2.44 0.14 0.12 0.31 0.23 0.7 0.28 0.38 0.05 0.92 0 1.51-0.14 1.18-0.28 2.5-0.86 3.77-1.56 2.56-1.42 5.03-3.31 7.31-5.35 1.15-1.02 2.23-2.11 3.27-3.22 1.07-1.09 2.22-2.03 3.64-2.93l1.2 0.52c0.07 1.01-0.2 1.91-0.51 2.73-0.33 0.82-0.76 1.57-1.26 2.25-1.03 1.34-2.15 2.58-3.3 3.78-2.33 2.39-4.83 4.62-7.74 6.53-1.47 0.94-3.04 1.83-4.95 2.41-0.96 0.28-2.02 0.5-3.24 0.45-1.2-0.03-2.62-0.42-3.77-1.27-1.15-0.84-1.9-1.97-2.37-3.01-0.48-1.07-0.71-2.03-0.9-2.98-0.34-1.9-0.4-3.75-0.27-5.52 0.24-3.55 1.02-6.87 1.99-10.08 0.96-3.21 2.18-6.29 3.47-9.31 1.34-3 2.71-5.97 4.31-8.82 1.67-2.81 3.66-5.45 6.49-7.55l1.64 0.99z"/>
   <path class="cls-4" d="m217.89 325.49c-0.44 0.12-0.9 0.21-1.39 0.26-0.48 0.02-0.97-0.05-1.48-0.13-0.49-0.11-0.96-0.31-1.45-0.52-0.47-0.22-0.86-0.53-1.3-0.83-1.6-1.29-2.57-3-3.19-4.66-0.63-1.68-0.8-3.35-0.96-4.99-0.05-0.81-0.08-1.62-0.09-2.43 0.03-0.79 0.01-1.6 0.08-2.38 0.45-6.3 2.04-12.26 4.35-17.89 1.14-2.82 2.47-5.55 3.95-8.2 1.5-2.63 3.14-5.18 4.91-7.62 1.81-2.43 3.74-4.75 5.79-6.96 1.06-1.07 2.09-2.17 3.22-3.17 1.12-1.01 2.48-1.78 4.24-2.02l0.92 1.05c-0.37 1.76-1.2 2.9-2.09 4.01-0.96 1.03-1.83 2.14-2.73 3.22-1.73 2.22-3.33 4.54-4.81 6.93-2.91 4.81-5.32 9.9-7.21 15.14-0.93 2.62-1.78 5.27-2.4 7.96-0.65 2.67-1.13 5.37-1.35 8.03-0.07 0.67-0.07 1.32-0.12 1.98 0 0.65 0 1.3 0.02 1.94 0.06 0.62 0.06 1.27 0.18 1.86 0.04 0.3 0.07 0.61 0.12 0.9 0.07 0.28 0.1 0.57 0.15 0.86 0.22 1.11 0.44 2.13 0.79 3.03 0.34 0.89 0.83 1.74 2.01 2.6l-0.17 2.04z"/>
   <path class="cls-4" d="m188.77 267.63c1.54-1.59 3.29-2.8 5.11-3.85 1.82-1.04 3.72-1.9 5.65-2.6 1.93-0.72 3.92-1.23 5.89-1.76 1.98-0.51 3.96-1.01 5.94-1.47 7.94-1.82 15.91-3.19 23.93-4.26s16.14-1.78 24.38-1.8c4.11 0.02 8.27 0.27 12.37 0.85 2.05 0.3 4.09 0.63 6.09 1.07 2 0.46 3.92 1.22 5.65 2.77l-0.32 1.57c-2.2 0.77-4.21 0.73-6.16 0.54-1.95-0.26-3.88-0.44-5.82-0.58-3.87-0.26-7.74-0.21-11.64 0.05-3.89 0.27-7.8 0.68-11.7 1.2-3.91 0.56-7.81 1.19-11.72 1.84-7.82 1.35-15.66 2.7-23.36 4.36-1.93 0.4-3.85 0.84-5.76 1.29-1.9 0.46-3.8 0.97-5.71 1.39-3.85 0.8-7.64 1.48-11.89 1.53l-0.94-2.16z"/>
   <path class="cls-4" d="m202.92 294.46c1.68-2 3.6-2.99 5.58-3.72 0.99-0.36 2.02-0.56 3.04-0.8l3.06-0.69c4.09-0.87 8.22-1.63 12.39-2.14 4.17-0.54 8.39-0.86 12.66-0.95 2.14-0.03 4.29 0 6.47 0.14 1.09 0.08 2.19 0.17 3.31 0.36 1.09 0.2 2.28 0.78 3.05 2.14l-0.42 1.46c-1.23 0.86-2.09 1.05-3.07 1.1-0.94-0.01-1.92 0.02-2.9 0.09-1.96 0.13-3.96 0.38-5.95 0.68-3.99 0.6-7.99 1.4-12.01 2.15l-12.07 2.28-3.03 0.55c-1.01 0.19-2.01 0.41-3.04 0.49-2.07 0.15-4.19 0.07-6.55-0.98l-0.52-2.18z"/>
   <path class="cls-4" d="m273.54 282.27c1.14-0.13 1.77-0.15 2.3-0.05 0.53 0.11 1.04 0.36 1.69 0.41 1.27 0.19 2.78 0.08 4.32-0.07 1.56-0.24 3.19-0.48 4.85-0.87 0.83-0.21 1.67-0.35 2.51-0.59 0.91-0.08 1.41-1.06 3.09 0.59l0.04 0.04c0.37 0.36 0.56 0.84 0.56 1.32 0.01 2.33-1.16 2.03-1.92 2.64-0.82 0.47-1.72 0.82-2.59 1.22-1.76 0.76-3.66 1.36-5.65 1.72-2.03 0.3-4.17 0.39-6.45-0.16-0.57-0.15-1.13-0.3-1.7-0.57-0.56-0.21-1.14-0.52-1.64-0.92-0.99-0.87-1.77-2.12-1.42-3.89 0.07-0.36 0.36-0.61 0.71-0.65l1.32-0.15z"/>
  </symbol>
 </defs>
 <!-- Generator: Adobe Illustrator 28.7.1, SVG Export Plug-In . SVG Version: 1.2.0 Build 142)  -->
 <g transform="translate(-249.85 -172.4)">
  <use transform="translate(254.99,177.52)" width="678.38" height="325.75" xlink:href="#Nouveau_symbole"/>
 </g>
</svg>
